<?xml version="1.0" encoding="utf-8"?>
<!-- Generator: Adobe Illustrator 19.1.0, SVG Export Plug-In . SVG Version: 6.00 Build 0)  -->
<svg version="1.1" id="Layer_1" xmlns="http://www.w3.org/2000/svg" xmlns:xlink="http://www.w3.org/1999/xlink" x="0px" y="0px"
	 viewBox="0 0 18.1 14.9" style="enable-background:new 0 0 18.1 14.9;" xml:space="preserve">
<style type="text/css">
	.st0{fill:none;stroke:#FFFFFF;stroke-width:1.25;stroke-miterlimit:10;}
	.st1{fill:none;stroke:#000000;stroke-width:0.25;stroke-miterlimit:10;}
	.st2{fill:none;stroke:#FFFFFF;stroke-width:0.25;stroke-miterlimit:10;}
</style>
<circle class="st0" cx="9.1" cy="7.5" r="5"/>
<line class="st0" x1="3.1" y1="7.5" x2="15.1" y2="7.5"/>
<line class="st0" x1="9.1" y1="1.5" x2="9.1" y2="13.5"/>
<circle class="st0" cx="9.1" cy="7.5" r="3"/>
<circle class="st1" cx="9.1" cy="7.5" r="5"/>
<line class="st1" x1="3.1" y1="7.5" x2="15.1" y2="7.5"/>
<line class="st1" x1="9.1" y1="1.5" x2="9.1" y2="13.5"/>
<path d="M12.1,7.5c0,1.7-1.3,3-3,3c-1.7,0-3-1.3-3-3c0-1.7,1.3-3,3-3C10.8,4.5,12.1,5.8,12.1,7.5"/>
<line class="st2" x1="6.1" y1="7.5" x2="12.1" y2="7.5"/>
<line class="st2" x1="9.1" y1="4.5" x2="9.1" y2="10.5"/>
</svg>
